<svg width="22" height="20" viewBox="0 0 22 20" fill="none" xmlns="http://www.w3.org/2000/svg">
<path d="M11 19L9.55 17.7C7.86667 16.1834 6.475 14.875 5.375 13.775C4.275 12.675 3.4 11.6874 2.75 10.812C2.1 9.93669 1.646 9.13269 1.388 8.40002C1.13 7.66736 1.00067 6.91736 1 6.15002C1 4.58336 1.525 3.27502 2.575 2.22502C3.625 1.17502 4.93333 0.650024 6.5 0.650024C7.36667 0.650024 8.19167 0.833358 8.975 1.20002C9.75833 1.56669 10.4333 2.08336 11 2.75002C11.5667 2.08336 12.2417 1.56669 13.025 1.20002C13.8083 0.833358 14.6333 0.650024 15.5 0.650024C17.0667 0.650024 18.375 1.17502 19.425 2.22502C20.475 3.27502 21 4.58336 21 6.15002C21 6.91669 20.871 7.66669 20.613 8.40002C20.355 9.13336 19.9007 9.93736 19.25 10.812C18.5993 11.6867 17.7243 12.6744 16.625 13.775C15.5257 14.8757 14.134 16.184 12.45 17.7L11 19Z" stroke="#37CECE"/>
</svg>
