<svg width="26" height="24" viewBox="0 0 26 24" fill="none" xmlns="http://www.w3.org/2000/svg">
<path d="M18.1819 20.25H10.5596C7.30546 20.25 4.65804 17.7267 4.65804 14.6251V8.85947C4.65804 5.9762 3.1503 3.30739 0.624887 1.72031C0.171355 1.43531 0.0461444 0.853876 0.345155 0.421598C0.644166 -0.0107278 1.25414 -0.130118 1.70777 0.154974C3.14941 1.06097 4.319 2.2559 5.15534 3.63167C5.33607 3.82466 6.79346 5.29699 9.18259 5.29699H20.5089C23.5991 5.24191 26.0178 8.19769 25.2099 11.0406L23.906 15.9939C23.2464 18.4998 20.8925 20.25 18.1819 20.25ZM6.37706 6.64234C6.54058 7.36238 6.62521 8.10483 6.62521 8.85947V14.6251C6.62521 16.6928 8.39016 18.375 10.5596 18.375H18.1819C19.989 18.375 21.5582 17.2082 21.998 15.5376L23.3018 10.5844C23.7819 8.89509 22.3445 7.13931 20.5089 7.17198H9.18254C8.10202 7.17198 7.16152 6.94993 6.37706 6.64234ZM10.0678 22.8281C10.0678 22.1809 9.51731 21.6563 8.83829 21.6563C7.20691 21.7182 7.20833 23.9387 8.83829 24C9.51731 24 10.0678 23.4753 10.0678 22.8281ZM19.8545 22.8281C19.8545 22.1809 19.304 21.6563 18.625 21.6563C16.9936 21.7182 16.995 23.9387 18.625 24C19.304 24 19.8545 23.4753 19.8545 22.8281ZM21.4925 9.98446C21.4925 9.46668 21.0522 9.04697 20.5089 9.04697H9.57598C8.27095 9.09647 8.27194 10.8729 9.57598 10.922H20.5089C21.0522 10.922 21.4925 10.5022 21.4925 9.98446Z" fill="#3D3D3D"/>
</svg>
